<svg width="50" height="50" viewBox="0 0 50 50" fill="none" xmlns="http://www.w3.org/2000/svg">
<path d="M32.989 24.572C32.907 22.9979 32.3596 21.4836 31.416 20.221C31.1285 20.5306 30.8212 20.8212 30.496 21.091C29.4969 21.9208 28.3805 22.5982 27.183 23.101C27.35 23.451 27.503 23.79 27.638 24.11V24.113C27.6761 24.2024 27.7128 24.2924 27.748 24.383C29.262 24.213 30.858 24.275 32.405 24.484C32.611 24.512 32.805 24.542 32.989 24.572ZM23.604 17.122C24.5785 18.4952 25.4772 19.9206 26.296 21.392C27.519 20.91 28.53 20.302 29.344 19.625C29.6266 19.3921 29.8925 19.1399 30.14 18.87C28.701 17.6597 26.8803 16.9973 25 17C24.532 16.9997 24.0649 17.0402 23.604 17.121V17.122ZM17.253 22.997C17.9342 22.9798 18.6146 22.9388 19.293 22.874C20.9326 22.7273 22.5583 22.4525 24.155 22.052C23.3205 20.6022 22.4196 19.1917 21.455 17.825C20.4247 18.3354 19.5163 19.0614 18.7912 19.9538C18.0662 20.8462 17.5416 21.884 17.253 22.997ZM18.783 30.035C19.171 29.468 19.681 28.83 20.358 28.136C21.812 26.646 23.528 25.486 25.514 24.846L25.576 24.828C25.411 24.464 25.256 24.139 25.1 23.833C23.264 24.368 21.33 24.702 19.403 24.875C18.463 24.96 17.62 24.997 17 25.003C16.9982 26.8356 17.6273 28.6128 18.783 30.035ZM28.005 32.415C27.6194 30.4703 27.0735 28.5607 26.373 26.706C24.371 27.433 22.776 28.496 21.543 29.764C21.0454 30.2664 20.6038 30.8213 20.226 31.419C21.6048 32.4478 23.2797 33.0025 25 33C26.0299 33.0015 27.0504 32.8035 28.005 32.417V32.415ZM29.878 31.34C31.4393 30.1398 32.5028 28.4057 32.865 26.47C32.525 26.385 32.094 26.3 31.62 26.234C30.5661 26.0822 29.4968 26.0711 28.44 26.201C29.0351 27.8798 29.5155 29.5961 29.878 31.34ZM25 35C19.477 35 15 30.523 15 25C15 19.477 19.477 15 25 15C30.523 15 35 19.477 35 25C35 30.523 30.523 35 25 35Z" fill="black"/>
<circle cx="25" cy="25" r="24.5" stroke="#E8E7EA"/>
</svg>
