<svg width="125" height="125" viewBox="0 0 125 125" fill="none" xmlns="http://www.w3.org/2000/svg">
<path d="M16.9193 69.7975C16.9541 70.0278 16.9025 70.2382 16.7647 70.4285C16.624 70.6192 16.437 70.7322 16.2039 70.7674C15.9735 70.8022 15.7644 70.749 15.5764 70.6078C15.3856 70.4671 15.2729 70.2816 15.2381 70.0512C15.2033 69.8209 15.2562 69.6104 15.3969 69.4196C15.5348 69.2293 15.7189 69.1167 15.9493 69.082C16.1038 69.0587 16.2516 69.0766 16.3927 69.1357C16.5306 69.1925 16.647 69.2784 16.7419 69.3933C16.8368 69.5083 16.896 69.643 16.9193 69.7975Z" fill="black"/>
<path d="M20.2013 89.1037L23.6064 87.2305L24.2209 88.3467L18.486 91.5016L17.8962 90.4302L18.8296 89.9167L18.7905 89.8458C18.4142 89.881 18.0566 89.8086 17.7176 89.6287C17.3772 89.4463 17.0885 89.1399 16.8514 88.7093C16.6363 88.3186 16.53 87.9312 16.5327 87.5472C16.5328 87.1645 16.6488 86.804 16.8809 86.4656C17.1129 86.1272 17.4654 85.8279 17.9383 85.5677L21.5861 83.561L22.2006 84.6771L18.6873 86.6099C18.2716 86.8386 18.0063 87.1256 17.8916 87.4708C17.7743 87.8174 17.8198 88.1798 18.0281 88.5581C18.1706 88.8169 18.3533 89.0163 18.5763 89.1563C18.7979 89.2938 19.0492 89.3614 19.3302 89.3593C19.6073 89.356 19.8976 89.2708 20.2013 89.1037Z" fill="black"/>
<path d="M36.4499 100.416L33.6428 106.634L32.6442 105.776L34.8056 101.295L34.7571 101.253L30.6468 104.059L29.6481 103.201L31.7989 98.7395L31.7504 98.6978L27.6637 101.496L26.665 100.637L32.3905 96.9274L33.3763 97.7745L31.3032 102.224L31.3775 102.288L35.4674 99.5714L36.4499 100.416Z" fill="black"/>
<path d="M48.3714 105.627C48.9476 105.838 49.402 106.154 49.7347 106.575C50.0674 106.997 50.2654 107.488 50.3288 108.05C50.3922 108.612 50.3075 109.21 50.0748 109.845C49.8412 110.482 49.5181 110.996 49.1057 111.387C48.6933 111.777 48.2239 112.026 47.6976 112.133C47.1713 112.24 46.6201 112.187 46.0439 111.976C45.4677 111.765 45.0132 111.449 44.6806 111.028C44.3479 110.606 44.1503 110.114 44.0879 109.549C44.0255 108.985 44.1111 108.384 44.3448 107.746C44.5775 107.111 44.8996 106.6 45.311 106.212C45.7225 105.824 46.1914 105.577 46.7176 105.47C47.2439 105.364 47.7952 105.416 48.3714 105.627ZM47.9993 106.63C47.6258 106.493 47.2802 106.478 46.9624 106.586C46.6446 106.693 46.3669 106.889 46.1293 107.174C45.889 107.459 45.6965 107.798 45.5518 108.193C45.4081 108.585 45.3361 108.967 45.3359 109.339C45.332 109.713 45.4161 110.045 45.5882 110.335C45.7603 110.625 46.0331 110.838 46.4065 110.975C46.7827 111.112 47.1315 111.127 47.4529 111.018C47.7716 110.907 48.0516 110.709 48.2929 110.422C48.5305 110.137 48.7212 109.798 48.865 109.406C49.0097 109.012 49.0834 108.629 49.0863 108.258C49.0866 107.885 49.0001 107.556 48.8271 107.269C48.6513 106.98 48.3754 106.767 47.9993 106.63Z" fill="black"/>
<path d="M62.8054 107.741C63.3334 107.764 63.7987 107.919 64.2015 108.207C64.6013 108.497 64.9082 108.898 65.1222 109.411C65.3332 109.926 65.4234 110.537 65.393 111.243C65.3626 111.95 65.2188 112.55 64.9616 113.042C64.7016 113.534 64.3586 113.905 63.9327 114.154C63.5069 114.403 63.0314 114.516 62.5063 114.493C62.1004 114.476 61.7769 114.394 61.5359 114.247C61.2919 114.103 61.1056 113.938 60.977 113.754C60.8457 113.569 60.7446 113.407 60.6738 113.267L60.5972 113.264L60.4577 116.504L59.1847 116.449L59.56 107.73L60.8032 107.783L60.7594 108.801L60.8659 108.805C60.9485 108.669 61.066 108.515 61.2185 108.343C61.3681 108.17 61.5706 108.022 61.8261 107.9C62.0817 107.777 62.4081 107.724 62.8054 107.741ZM62.4777 108.815C62.1116 108.799 61.7981 108.882 61.5371 109.064C61.2733 109.249 61.0686 109.512 60.9231 109.853C60.7748 110.193 60.6908 110.593 60.671 111.053C60.6514 111.507 60.6996 111.907 60.8155 112.254C60.9314 112.6 61.1116 112.874 61.356 113.075C61.6004 113.276 61.9085 113.384 62.2804 113.4C62.6635 113.417 62.9871 113.331 63.2511 113.143C63.5151 112.956 63.7198 112.693 63.8651 112.355C64.0076 112.017 64.0882 111.632 64.1067 111.201C64.1256 110.764 64.0772 110.368 63.9617 110.013C63.8461 109.659 63.665 109.373 63.4184 109.158C63.1688 108.946 62.8552 108.831 62.4777 108.815Z" fill="black"/>
<path d="M78.9026 113.856L76.2484 105.542L77.4623 105.155L80.1164 113.469L78.9026 113.856Z" fill="black"/>
<path d="M85.2235 111.361L81.5569 103.441L82.7133 102.906L86.3799 110.826L85.2235 111.361Z" fill="black"/>
<path d="M91.3641 97.1044C91.8538 96.7347 92.366 96.5242 92.9006 96.473C93.4352 96.4218 93.9558 96.5218 94.4624 96.7729C94.969 97.024 95.4262 97.4193 95.8338 97.9588C96.2431 98.5005 96.5001 99.0504 96.6049 99.6085C96.7097 100.167 96.6643 100.696 96.4688 101.196C96.2733 101.696 95.9307 102.13 95.441 102.5C94.9512 102.87 94.4391 103.08 93.9045 103.132C93.3699 103.183 92.8484 103.082 92.3401 102.828C91.8317 102.575 91.3729 102.177 90.9636 101.636C90.556 101.096 90.3007 100.549 90.1976 99.9927C90.0946 99.4369 90.1408 98.909 90.3363 98.409C90.5317 97.909 90.8744 97.4742 91.3641 97.1044ZM92.0055 97.9604C91.6881 98.2 91.4884 98.4825 91.4066 98.8077C91.3247 99.1329 91.3392 99.4725 91.4501 99.8267C91.5587 100.182 91.7398 100.528 91.9933 100.864C92.245 101.197 92.5272 101.464 92.8399 101.666C93.152 101.872 93.4766 101.981 93.8137 101.993C94.1507 102.006 94.4779 101.892 94.7953 101.653C95.115 101.411 95.3161 101.126 95.3985 100.797C95.4786 100.469 95.4635 100.127 95.3532 99.7686C95.2423 99.4145 95.061 99.0708 94.8092 98.7376C94.5558 98.4021 94.2738 98.1327 93.9634 97.9292C93.6507 97.7274 93.3267 97.6214 92.9914 97.6112C92.6538 97.6026 92.3252 97.719 92.0055 97.9604Z" fill="black"/>
<path d="M99.5977 88.4324L104.702 92.5297L103.931 93.4898L103.12 92.839L103.077 92.8921C103.277 93.2057 103.362 93.5429 103.33 93.904C103.299 94.269 103.164 94.601 102.924 94.9C102.874 94.962 102.813 95.0333 102.741 95.1139C102.667 95.1967 102.607 95.2598 102.561 95.3032L101.611 94.5403C101.654 94.5093 101.723 94.4482 101.818 94.357C101.916 94.2676 102.005 94.172 102.087 94.0701C102.276 93.8353 102.394 93.586 102.442 93.3221C102.49 93.0623 102.47 92.809 102.38 92.5622C102.293 92.3171 102.138 92.1057 101.917 91.9279L98.7997 89.4257L99.5977 88.4324Z" fill="black"/>
<path d="M104.26 79.6465C104.529 79.0728 104.891 78.6397 105.344 78.3471C105.8 78.0584 106.309 77.9111 106.874 77.9055C107.438 77.8998 108.017 78.0361 108.611 78.3143C109.214 78.5961 109.692 78.958 110.046 79.4C110.403 79.8431 110.616 80.3314 110.683 80.8646C110.75 81.3979 110.652 81.9436 110.391 82.5019C110.18 82.9521 109.908 83.3143 109.576 83.5885C109.246 83.8638 108.881 84.0397 108.482 84.1161C108.081 84.1951 107.671 84.1618 107.253 84.0163L107.779 82.8933C108.086 82.9617 108.392 82.9322 108.696 82.8049C108.999 82.6801 109.237 82.4338 109.409 82.0659C109.56 81.7444 109.607 81.4229 109.55 81.1016C109.495 80.7841 109.343 80.4855 109.095 80.206C108.849 79.9277 108.515 79.6898 108.093 79.4923C107.66 79.29 107.256 79.181 106.881 79.1652C106.506 79.1495 106.176 79.2209 105.891 79.3795C105.606 79.5406 105.386 79.7845 105.233 80.1113C105.131 80.3299 105.078 80.5467 105.075 80.7615C105.073 80.9802 105.119 81.1855 105.214 81.3774C105.308 81.572 105.451 81.7437 105.641 81.8925L105.115 83.0155C104.751 82.7949 104.467 82.5099 104.264 82.1606C104.06 81.8113 103.954 81.4214 103.946 80.9908C103.936 80.5628 104.041 80.1147 104.26 79.6465Z" fill="black"/>
<path d="M112.114 70.6794L112.098 69.5067C112.251 69.4827 112.402 69.4296 112.551 69.3472C112.699 69.2677 112.829 69.1478 112.942 68.9877C113.054 68.8275 113.132 68.617 113.174 68.3562C113.232 68.0001 113.2 67.6899 113.079 67.4256C112.961 67.1617 112.777 67.0095 112.527 66.9689C112.312 66.9339 112.125 66.9855 111.967 67.124C111.809 67.2624 111.659 67.5028 111.517 67.8453L111.115 68.8333C110.881 69.4054 110.597 69.8141 110.263 70.0592C109.93 70.3044 109.535 70.3898 109.078 70.3156C108.691 70.2527 108.364 70.0845 108.098 69.811C107.834 69.5407 107.648 69.1926 107.542 68.7666C107.435 68.3434 107.424 67.8711 107.509 67.3495C107.627 66.626 107.877 66.0608 108.26 65.6539C108.645 65.2474 109.133 65.0388 109.722 65.0279L109.709 66.2736C109.38 66.2978 109.115 66.4145 108.914 66.6236C108.716 66.8332 108.586 67.1272 108.524 67.5058C108.457 67.918 108.489 68.2614 108.62 68.5359C108.754 68.8109 108.946 68.9687 109.195 69.0092C109.397 69.0421 109.579 68.9939 109.741 68.8648C109.903 68.7385 110.043 68.5268 110.164 68.2298L110.581 67.1751C110.817 66.5946 111.108 66.1843 111.455 65.9442C111.802 65.7069 112.205 65.6257 112.665 65.7004C113.046 65.7623 113.362 65.9231 113.614 66.1827C113.865 66.4423 114.04 66.7729 114.139 67.1746C114.24 67.5768 114.252 68.0205 114.173 68.5056C114.059 69.2038 113.819 69.7288 113.451 70.0806C113.085 70.4328 112.64 70.6324 112.114 70.6794Z" fill="black"/>
<path d="M106.945 52.8829C106.904 52.6536 106.95 52.442 107.083 52.248C107.219 52.0536 107.402 51.9356 107.635 51.8942C107.864 51.8533 108.074 51.9009 108.266 52.037C108.461 52.1725 108.578 52.355 108.619 52.5843C108.66 52.8136 108.613 53.0255 108.477 53.22C108.345 53.4139 108.164 53.5313 107.934 53.5722C107.78 53.5997 107.632 53.5857 107.49 53.5304C107.35 53.4773 107.232 53.3946 107.134 53.2822C107.036 53.1698 106.973 53.0367 106.945 52.8829Z" fill="black"/>
<path d="M103.148 33.6713L99.794 35.635L99.1499 34.5356L104.798 31.2284L105.417 32.2836L104.497 32.8219L104.538 32.8918C104.913 32.8465 105.273 32.9093 105.617 33.0801C105.962 33.2533 106.259 33.5519 106.507 33.9759C106.733 34.3608 106.849 34.7452 106.857 35.1291C106.867 35.5117 106.761 35.8752 106.538 36.2197C106.315 36.5641 105.97 36.8728 105.505 37.1455L101.912 39.2491L101.268 38.1498L104.728 36.1237C105.138 35.884 105.395 35.59 105.5 35.2418C105.608 34.8922 105.553 34.5311 105.335 34.1586C105.186 33.9037 104.998 33.7092 104.771 33.5753C104.546 33.4438 104.293 33.3829 104.012 33.3926C103.735 33.4033 103.447 33.4962 103.148 33.6713Z" fill="black"/>
<path d="M86.6022 22.798L89.2419 16.5072L90.2632 17.3383L88.2224 21.875L88.272 21.9153L92.3058 19.0007L93.327 19.8318L91.2964 24.3493L91.346 24.3896L95.3564 21.4834L96.3777 22.3146L90.7535 26.1765L89.7454 25.3561L91.6987 20.8526L91.6227 20.7908L87.607 23.6158L86.6022 22.798Z" fill="black"/>
<path d="M74.5456 17.9077C73.964 17.7122 73.5012 17.4082 73.1574 16.9959C72.8135 16.5836 72.6024 16.0975 72.524 15.5377C72.4456 14.9778 72.5142 14.3775 72.7299 13.7366C72.9464 13.0931 73.2556 12.5706 73.6574 12.1692C74.0592 11.7678 74.5218 11.5067 75.045 11.3859C75.5682 11.2651 76.1207 11.3025 76.7023 11.4981C77.2839 11.6936 77.7467 11.9976 78.0905 12.4099C78.4344 12.8222 78.645 13.3096 78.7225 13.8722C78.8 14.4347 78.7305 15.0378 78.514 15.6813C78.2983 16.3221 77.9901 16.8419 77.5891 17.2406C77.1882 17.6393 76.7261 17.8991 76.2029 18.0199C75.6797 18.1407 75.1272 18.1033 74.5456 17.9077ZM74.8907 16.8953C75.2677 17.0221 75.6136 17.0275 75.9284 16.9115C76.2432 16.7956 76.5155 16.5919 76.7454 16.3006C76.9781 16.0101 77.1614 15.6656 77.2955 15.2671C77.4287 14.8713 77.4904 14.4875 77.4807 14.1155C77.4745 13.7418 77.3815 13.4123 77.2018 13.1271C77.022 12.8419 76.7436 12.6359 76.3666 12.5091C75.9869 12.3815 75.6379 12.3765 75.3195 12.4943C75.0038 12.6129 74.7292 12.8188 74.4957 13.112C74.2658 13.4033 74.0842 13.7469 73.951 14.1427C73.817 14.5412 73.7534 14.926 73.7605 15.297C73.7702 15.6689 73.8654 15.9962 74.0461 16.2787C74.2295 16.5621 74.5111 16.7677 74.8907 16.8953Z" fill="black"/>
<path d="M60.0602 16.1799C59.5318 16.1713 59.0625 16.0288 58.6521 15.7522C58.2447 15.4728 57.9272 15.0798 57.6996 14.5732C57.4749 14.0638 57.3683 13.4555 57.3798 12.7482C57.3912 12.0409 57.519 11.4378 57.7629 10.9388C58.0097 10.4399 58.3426 10.0603 58.7616 9.80005C59.1807 9.53977 59.653 9.4139 60.1785 9.42243C60.5847 9.42903 60.9102 9.5025 61.1551 9.64286C61.4029 9.78042 61.5936 9.93979 61.727 10.121C61.8633 10.3022 61.9686 10.4616 62.0431 10.5992L62.1198 10.6004L62.1725 7.35794L63.4465 7.37862L63.3047 16.1047L62.0605 16.0845L62.0771 15.0662L61.9706 15.0645C61.8916 15.2024 61.7783 15.3597 61.6305 15.5363C61.4855 15.7129 61.287 15.866 61.0349 15.9954C60.7827 16.1249 60.4578 16.1864 60.0602 16.1799ZM60.359 15.098C60.7254 15.1039 61.0366 15.0124 61.2926 14.8233C61.5514 14.6315 61.749 14.3633 61.8853 14.0189C62.0244 13.6745 62.0977 13.2723 62.1052 12.8121C62.1126 12.3576 62.0537 11.9589 61.9286 11.6159C61.8035 11.2729 61.616 11.0042 61.3663 10.8098C61.1166 10.6154 60.8057 10.5151 60.4336 10.5091C60.0501 10.5029 59.7289 10.5971 59.4701 10.7918C59.2112 10.9865 59.0136 11.2546 58.8774 11.5962C58.744 11.9378 58.6737 12.3245 58.6667 12.7563C58.6596 13.1937 58.7186 13.5882 58.8435 13.9397C58.9685 14.2912 59.1572 14.5713 59.4095 14.78C59.6647 14.9858 59.9812 15.0919 60.359 15.098Z" fill="black"/>
<path d="M43.8052 10.4979L46.6809 18.7377L45.4778 19.1573L42.6021 10.9174L43.8052 10.4979Z" fill="black"/>
<path d="M37.5532 13.1613L41.4305 20.98L40.2888 21.5457L36.4115 13.727L37.5532 13.1613Z" fill="black"/>
<path d="M31.7964 27.5766C31.3167 27.9594 30.8103 28.1834 30.2773 28.2489C29.7443 28.3144 29.2212 28.2284 28.708 27.9909C28.1948 27.7535 27.7273 27.3705 27.3054 26.8422C26.8818 26.3116 26.6101 25.7688 26.4904 25.2137C26.3708 24.6586 26.402 24.1286 26.584 23.6235C26.766 23.1185 27.0969 22.6746 27.5766 22.2919C28.0562 21.9092 28.5626 21.6851 29.0956 21.6196C29.6286 21.5541 30.1526 21.6413 30.6676 21.8809C31.1825 22.1206 31.6518 22.5058 32.0755 23.0364C32.4974 23.5647 32.7673 24.1053 32.8852 24.6582C33.003 25.211 32.971 25.74 32.7889 26.245C32.6069 26.7501 32.276 27.1939 31.7964 27.5766ZM31.1323 26.7382C31.4432 26.4901 31.6352 26.2024 31.7083 25.8751C31.7815 25.5479 31.7579 25.2087 31.6375 24.8577C31.5194 24.5049 31.3292 24.1642 31.0668 23.8357C30.8063 23.5093 30.517 23.2495 30.199 23.0561C29.8815 22.8588 29.5541 22.7584 29.2169 22.7549C28.8796 22.7514 28.5555 22.8737 28.2446 23.1217C27.9315 23.3716 27.7382 23.6621 27.6646 23.9934C27.5932 24.3229 27.6175 24.6652 27.7374 25.0202C27.8577 25.3712 28.0482 25.7099 28.3087 26.0362C28.5711 26.3648 28.8601 26.6266 29.1759 26.8217C29.4939 27.0151 29.8206 27.1124 30.1561 27.1136C30.4938 27.1131 30.8192 26.988 31.1323 26.7382Z" fill="black"/>
<path d="M23.7978 36.4658L18.5856 32.5065L19.3309 31.5261L20.1589 32.155L20.2001 32.1007C19.9918 31.7927 19.8985 31.4578 19.9201 31.096C19.9412 30.7303 20.0678 30.3948 20.2999 30.0895C20.3481 30.0262 20.4071 29.9533 20.4769 29.8707C20.5485 29.786 20.6066 29.7213 20.6512 29.6767L21.6217 30.4139C21.5794 30.446 21.512 30.509 21.4193 30.6027C21.3244 30.6947 21.2374 30.7927 21.1583 30.8967C20.9761 31.1365 20.8645 31.3888 20.8236 31.6539C20.7821 31.9149 20.8095 32.1676 20.9057 32.4119C20.9996 32.6545 21.1597 32.8618 21.3859 33.0336L24.5689 35.4515L23.7978 36.4658Z" fill="black"/>
<path d="M19.3719 45.3732C19.1186 45.9539 18.769 46.3966 18.3231 46.7012C17.8757 47.002 17.3701 47.1628 16.8062 47.1836C16.2424 47.2043 15.6596 47.0836 15.0581 46.8214C14.4487 46.5558 13.9608 46.2068 13.5946 45.7745C13.2258 45.341 13.0008 44.8586 12.9195 44.3274C12.8382 43.7961 12.9208 43.2479 13.1673 42.6828C13.366 42.2272 13.6279 41.8578 13.9528 41.5749C14.275 41.2908 14.6349 41.1052 15.0324 41.0181C15.4311 40.9285 15.8413 40.9508 16.2632 41.0851L15.7674 42.2217C15.4588 42.1616 15.1542 42.1992 14.8534 42.3346C14.5537 42.4674 14.3226 42.72 14.1602 43.0924C14.0182 43.4179 13.9798 43.7405 14.0449 44.0602C14.1085 44.3761 14.2684 44.6705 14.5244 44.9432C14.7779 45.2148 15.1182 45.4437 15.5453 45.6299C15.9828 45.8206 16.3894 45.9188 16.765 45.9244C17.1407 45.9301 17.4686 45.8499 17.7487 45.6838C18.0299 45.5151 18.2427 45.2654 18.3869 44.9347C18.4835 44.7133 18.5306 44.4952 18.5282 44.2804C18.5244 44.0618 18.4724 43.8578 18.3721 43.6684C18.273 43.4765 18.1261 43.3086 17.9315 43.165L18.4273 42.0283C18.7972 42.2391 19.0885 42.5164 19.3012 42.8601C19.5139 43.2038 19.6302 43.5908 19.6502 44.021C19.6714 44.4486 19.5786 44.8993 19.3719 45.3732Z" fill="black"/>
<path d="M11.7612 54.5472L11.8091 55.719C11.6562 55.7471 11.5066 55.8043 11.3602 55.8906C11.2142 55.9741 11.0871 56.0974 10.979 56.2605C10.871 56.4236 10.7992 56.6361 10.7638 56.8979C10.7155 57.2555 10.7554 57.5647 10.8835 57.8257C11.0088 58.0863 11.1967 58.2335 11.4473 58.2674C11.664 58.2967 11.8494 58.2401 12.0035 58.0975C12.1575 57.9549 12.3009 57.7105 12.4337 57.3644L12.8096 56.366C13.0282 55.7878 13.3009 55.3717 13.6277 55.1177C13.9544 54.8637 14.3473 54.7677 14.8062 54.8297C15.1947 54.8822 15.5257 55.0416 15.7993 55.3079C16.0705 55.571 16.2649 55.9141 16.3826 56.3371C16.5006 56.7572 16.5243 57.2291 16.4534 57.7528C16.3552 58.4791 16.1202 59.0508 15.7485 59.4679C15.3739 59.8845 14.8924 60.1061 14.304 60.1327L14.2833 58.8871C14.6117 58.8541 14.8735 58.7304 15.0688 58.516C15.2612 58.3012 15.3832 58.0038 15.4346 57.6237C15.4905 57.2098 15.4494 56.8674 15.3112 56.5965C15.1701 56.3252 14.9743 56.1726 14.7238 56.1387C14.521 56.1113 14.3404 56.1643 14.1819 56.2977C14.0238 56.4283 13.8886 56.6436 13.7763 56.9438L13.3871 58.0092C13.1673 58.5959 12.8872 59.0138 12.5467 59.2631C12.2067 59.5096 11.8058 59.6016 11.3441 59.5392C10.9612 59.4875 10.6406 59.3352 10.3824 59.0824C10.1242 58.8297 9.94034 58.5038 9.83088 58.1049C9.71861 57.7056 9.69541 57.2624 9.76128 56.7754C9.85608 56.0743 10.0827 55.5431 10.4412 55.1816C10.7969 54.8197 11.2369 54.6083 11.7612 54.5472Z" fill="black"/>
</svg>
