<svg width="100" height="28" viewBox="0 0 100 28" fill="none" xmlns="http://www.w3.org/2000/svg">
<path d="M6.57102 1.27273H7.89205V7.01278C7.89205 7.62358 7.74858 8.16477 7.46165 8.63636C7.17472 9.10511 6.77131 9.47443 6.25142 9.74432C5.73153 10.0114 5.12216 10.1449 4.4233 10.1449C3.72727 10.1449 3.11932 10.0114 2.59943 9.74432C2.07955 9.47443 1.67614 9.10511 1.3892 8.63636C1.10227 8.16477 0.958807 7.62358 0.958807 7.01278V1.27273H2.27557V6.90625C2.27557 7.30114 2.36222 7.65199 2.53551 7.95881C2.71165 8.26562 2.96023 8.5071 3.28125 8.68324C3.60227 8.85653 3.98295 8.94318 4.4233 8.94318C4.86648 8.94318 5.24858 8.85653 5.5696 8.68324C5.89347 8.5071 6.14063 8.26562 6.31108 7.95881C6.48438 7.65199 6.57102 7.30114 6.57102 6.90625V1.27273ZM11.1232 1.27273V10H9.80646V1.27273H11.1232ZM16.2624 0.863636L13.4499 11.3125H12.3121L15.1246 0.863636H16.2624ZM23.0593 1.27273H24.3803V7.01278C24.3803 7.62358 24.2369 8.16477 23.9499 8.63636C23.663 9.10511 23.2596 9.47443 22.7397 9.74432C22.2198 10.0114 21.6104 10.1449 20.9116 10.1449C20.2156 10.1449 19.6076 10.0114 19.0877 9.74432C18.5678 9.47443 18.1644 9.10511 17.8775 8.63636C17.5906 8.16477 17.4471 7.62358 17.4471 7.01278V1.27273H18.7638V6.90625C18.7638 7.30114 18.8505 7.65199 19.0238 7.95881C19.1999 8.26562 19.4485 8.5071 19.7695 8.68324C20.0906 8.85653 20.4712 8.94318 20.9116 8.94318C21.3548 8.94318 21.7369 8.85653 22.0579 8.68324C22.3817 8.5071 22.6289 8.26562 22.7994 7.95881C22.9727 7.65199 23.0593 7.30114 23.0593 6.90625V1.27273ZM27.2109 1.27273L29.299 4.68608H29.3672L31.4553 1.27273H32.9808L30.2621 5.63636L32.9979 10H31.4638L29.3672 6.63352H29.299L27.2024 10H25.6683L28.451 5.63636L25.6854 1.27273H27.2109ZM40.288 10H37.4627V1.27273H40.3775C41.2326 1.27273 41.967 1.44744 42.5806 1.79688C43.1942 2.14347 43.6644 2.64205 43.9911 3.29261C44.3207 3.94034 44.4854 4.71733 44.4854 5.62358C44.4854 6.53267 44.3192 7.31392 43.9869 7.96733C43.6573 8.62074 43.18 9.12358 42.555 9.47585C41.93 9.82528 41.1744 10 40.288 10ZM38.7795 8.84943H40.2156C40.8803 8.84943 41.4329 8.72443 41.8732 8.47443C42.3136 8.22159 42.6431 7.85653 42.8619 7.37926C43.0806 6.89915 43.19 6.31392 43.19 5.62358C43.19 4.93892 43.0806 4.35795 42.8619 3.88068C42.646 3.40341 42.3235 3.04119 41.8945 2.79403C41.4656 2.54687 40.9329 2.4233 40.2965 2.4233H38.7795V8.84943ZM48.8416 10.1321C48.1967 10.1321 47.6413 9.99432 47.1754 9.71875C46.7124 9.44034 46.3544 9.04972 46.1016 8.54688C45.8516 8.04119 45.7266 7.44886 45.7266 6.76989C45.7266 6.09943 45.8516 5.50852 46.1016 4.99716C46.3544 4.4858 46.7067 4.08665 47.1584 3.79972C47.6129 3.51278 48.1442 3.36932 48.7521 3.36932C49.1214 3.36932 49.4794 3.4304 49.826 3.55256C50.1726 3.67472 50.4837 3.86648 50.7592 4.12784C51.0348 4.3892 51.2521 4.72869 51.4112 5.14631C51.5703 5.56108 51.6499 6.06534 51.6499 6.65909V7.1108H46.4467V6.15625H50.4013C50.4013 5.82102 50.3331 5.52415 50.1967 5.26562C50.0604 5.00426 49.8686 4.7983 49.6214 4.64773C49.3771 4.49716 49.0902 4.42188 48.7607 4.42188C48.4027 4.42188 48.0902 4.50994 47.8232 4.68608C47.5589 4.85937 47.3544 5.08665 47.2095 5.3679C47.0675 5.64631 46.9964 5.94886 46.9964 6.27557V7.02131C46.9964 7.45881 47.0732 7.83097 47.2266 8.13778C47.3828 8.4446 47.6001 8.67898 47.8786 8.84091C48.157 9 48.4822 9.07955 48.8544 9.07955C49.0959 9.07955 49.3161 9.04545 49.5149 8.97727C49.7138 8.90625 49.8857 8.80114 50.0305 8.66193C50.1754 8.52273 50.2862 8.35085 50.3629 8.14631L51.5689 8.36364C51.4723 8.71875 51.299 9.02983 51.049 9.29688C50.8018 9.56108 50.4908 9.76705 50.1158 9.91477C49.7436 10.0597 49.3189 10.1321 48.8416 10.1321ZM57.9684 5.05256L56.8136 5.2571C56.7653 5.10937 56.6886 4.96875 56.5835 4.83523C56.4812 4.7017 56.342 4.59233 56.1658 4.5071C55.9897 4.42187 55.7695 4.37926 55.5053 4.37926C55.1445 4.37926 54.8434 4.46023 54.6019 4.62216C54.3604 4.78125 54.2397 4.98722 54.2397 5.24006C54.2397 5.45881 54.3207 5.63494 54.4826 5.76847C54.6445 5.90199 54.9059 6.01136 55.2667 6.09659L56.3065 6.33523C56.9087 6.47443 57.3576 6.68892 57.6531 6.97869C57.9485 7.26847 58.0962 7.64489 58.0962 8.10795C58.0962 8.5 57.9826 8.84943 57.7553 9.15625C57.5309 9.46023 57.217 9.69886 56.8136 9.87216C56.413 10.0455 55.9485 10.1321 55.4201 10.1321C54.6871 10.1321 54.0891 9.97585 53.6261 9.66335C53.163 9.34801 52.8789 8.90057 52.7738 8.32102L54.0053 8.13352C54.082 8.45455 54.2397 8.69744 54.4783 8.86222C54.717 9.02415 55.0281 9.10511 55.4116 9.10511C55.8292 9.10511 56.163 9.01847 56.413 8.84517C56.663 8.66903 56.788 8.45455 56.788 8.2017C56.788 7.99716 56.7113 7.82528 56.5579 7.68608C56.4073 7.54687 56.1758 7.44176 55.8633 7.37074L54.7553 7.12784C54.1445 6.98864 53.6928 6.76705 53.4002 6.46307C53.1104 6.15909 52.9656 5.77415 52.9656 5.30824C52.9656 4.92187 53.0735 4.58381 53.2894 4.29403C53.5053 4.00426 53.8036 3.77841 54.1843 3.61648C54.565 3.4517 55.0011 3.36932 55.4925 3.36932C56.1999 3.36932 56.7567 3.52273 57.163 3.82955C57.5692 4.13352 57.8377 4.54119 57.9684 5.05256ZM59.4972 10V3.45455H60.7713V10H59.4972ZM60.1406 2.4446C59.919 2.4446 59.7287 2.37074 59.5696 2.22301C59.4134 2.07244 59.3352 1.89347 59.3352 1.68608C59.3352 1.47585 59.4134 1.29687 59.5696 1.14915C59.7287 0.998579 59.919 0.923295 60.1406 0.923295C60.3622 0.923295 60.5511 0.998579 60.7074 1.14915C60.8665 1.29687 60.946 1.47585 60.946 1.68608C60.946 1.89347 60.8665 2.07244 60.7074 2.22301C60.5511 2.37074 60.3622 2.4446 60.1406 2.4446ZM65.2298 12.5909C64.7099 12.5909 64.2624 12.5227 63.8874 12.3864C63.5153 12.25 63.2113 12.0696 62.9755 11.8452C62.7397 11.6207 62.5636 11.375 62.4471 11.108L63.5423 10.6562C63.619 10.7812 63.7212 10.9134 63.8491 11.0526C63.9798 11.1946 64.1559 11.3153 64.3775 11.4148C64.6019 11.5142 64.8903 11.5639 65.2425 11.5639C65.7255 11.5639 66.1246 11.446 66.44 11.2102C66.7553 10.9773 66.913 10.6051 66.913 10.0938V8.80682H66.832C66.7553 8.94602 66.6445 9.10085 66.4996 9.27131C66.3576 9.44176 66.1616 9.58949 65.9116 9.71449C65.6616 9.83949 65.3363 9.90199 64.9357 9.90199C64.4187 9.90199 63.9528 9.78125 63.538 9.53977C63.1261 9.29545 62.7994 8.93608 62.5579 8.46165C62.3192 7.98437 62.1999 7.39773 62.1999 6.7017C62.1999 6.00568 62.3178 5.40909 62.5536 4.91193C62.7923 4.41477 63.119 4.03409 63.5337 3.76989C63.9485 3.50284 64.4187 3.36932 64.9442 3.36932C65.3505 3.36932 65.6786 3.4375 65.9286 3.57386C66.1786 3.70739 66.3732 3.86364 66.5124 4.04261C66.6545 4.22159 66.7638 4.37926 66.8406 4.51562H66.9343V3.45455H68.1829V10.1449C68.1829 10.7074 68.0522 11.169 67.7908 11.5298C67.5295 11.8906 67.1758 12.1577 66.7298 12.331C66.2866 12.5043 65.7866 12.5909 65.2298 12.5909ZM65.217 8.84517C65.5835 8.84517 65.8931 8.75994 66.146 8.58949C66.4016 8.41619 66.5948 8.16903 66.7255 7.84801C66.859 7.52415 66.9258 7.13636 66.9258 6.68466C66.9258 6.24432 66.8604 5.85653 66.7298 5.52131C66.5991 5.18608 66.4073 4.92472 66.1545 4.73722C65.9016 4.54687 65.5891 4.4517 65.217 4.4517C64.8335 4.4517 64.5138 4.55114 64.2582 4.75C64.0025 4.94602 63.8093 5.21307 63.6786 5.55114C63.5508 5.8892 63.4869 6.26705 63.4869 6.68466C63.4869 7.11364 63.5522 7.49006 63.6829 7.81392C63.8136 8.13778 64.0067 8.39062 64.2624 8.57244C64.521 8.75426 64.8391 8.84517 65.217 8.84517ZM71.1658 6.11364V10H69.8917V3.45455H71.1147V4.51989H71.1957C71.3462 4.1733 71.582 3.89489 71.9031 3.68466C72.2269 3.47443 72.6346 3.36932 73.1261 3.36932C73.5721 3.36932 73.9627 3.46307 74.2979 3.65057C74.6332 3.83523 74.8931 4.1108 75.0778 4.47727C75.2624 4.84375 75.3548 5.29687 75.3548 5.83665V10H74.0806V5.99006C74.0806 5.51562 73.957 5.14489 73.7099 4.87784C73.4627 4.60795 73.1232 4.47301 72.6914 4.47301C72.396 4.47301 72.1332 4.53693 71.9031 4.66477C71.6758 4.79261 71.4954 4.98011 71.3619 5.22727C71.2312 5.47159 71.1658 5.76705 71.1658 6.11364ZM79.8846 10.1321C79.2397 10.1321 78.6843 9.99432 78.2184 9.71875C77.7553 9.44034 77.3974 9.04972 77.1445 8.54688C76.8945 8.04119 76.7695 7.44886 76.7695 6.76989C76.7695 6.09943 76.8945 5.50852 77.1445 4.99716C77.3974 4.4858 77.7496 4.08665 78.2013 3.79972C78.6559 3.51278 79.1871 3.36932 79.7951 3.36932C80.1644 3.36932 80.5224 3.4304 80.869 3.55256C81.2156 3.67472 81.5266 3.86648 81.8022 4.12784C82.0778 4.3892 82.2951 4.72869 82.4542 5.14631C82.6133 5.56108 82.6928 6.06534 82.6928 6.65909V7.1108H77.4897V6.15625H81.4442C81.4442 5.82102 81.3761 5.52415 81.2397 5.26562C81.1033 5.00426 80.9116 4.7983 80.6644 4.64773C80.4201 4.49716 80.1332 4.42188 79.8036 4.42188C79.4457 4.42188 79.1332 4.50994 78.8661 4.68608C78.6019 4.85937 78.3974 5.08665 78.2525 5.3679C78.1104 5.64631 78.0394 5.94886 78.0394 6.27557V7.02131C78.0394 7.45881 78.1161 7.83097 78.2695 8.13778C78.4258 8.4446 78.6431 8.67898 78.9215 8.84091C79.1999 9 79.5252 9.07955 79.8974 9.07955C80.1388 9.07955 80.359 9.04545 80.5579 8.97727C80.7567 8.90625 80.9286 8.80114 81.0735 8.66193C81.2184 8.52273 81.3292 8.35085 81.4059 8.14631L82.6119 8.36364C82.5153 8.71875 82.342 9.02983 82.092 9.29688C81.8448 9.56108 81.5337 9.76705 81.1587 9.91477C80.7866 10.0597 80.3619 10.1321 79.8846 10.1321ZM84.1065 10V3.45455H85.3381V4.49432H85.4062C85.5256 4.14205 85.7358 3.86506 86.0369 3.66335C86.3409 3.45881 86.6847 3.35653 87.0682 3.35653C87.1477 3.35653 87.2415 3.35937 87.3494 3.36506C87.4602 3.37074 87.5469 3.37784 87.6094 3.38636V4.60511C87.5582 4.59091 87.4673 4.57528 87.3366 4.55824C87.206 4.53835 87.0753 4.52841 86.9446 4.52841C86.6435 4.52841 86.375 4.59233 86.1392 4.72017C85.9063 4.84517 85.7216 5.01989 85.5852 5.24432C85.4489 5.46591 85.3807 5.71875 85.3807 6.00284V10H84.1065ZM94.4276 10.1236C93.8423 10.1236 93.3381 10.017 92.9148 9.80398C92.4943 9.59091 92.1705 9.30114 91.9432 8.93466C91.7159 8.56534 91.6023 8.14773 91.6023 7.68182C91.6023 7.3267 91.6761 7.01136 91.8239 6.7358C91.9716 6.45739 92.1776 6.20028 92.4418 5.96449C92.706 5.72869 93.0114 5.49148 93.358 5.25284L94.7642 4.25994C95.0028 4.10369 95.1889 3.93892 95.3224 3.76562C95.456 3.58949 95.5227 3.37216 95.5227 3.11364C95.5227 2.90909 95.4347 2.71307 95.2585 2.52557C95.0824 2.33807 94.8466 2.24432 94.5511 2.24432C94.3466 2.24432 94.1662 2.29403 94.0099 2.39347C93.8565 2.4929 93.7358 2.62074 93.6477 2.77699C93.5625 2.9304 93.5199 3.09233 93.5199 3.26278C93.5199 3.46165 93.5739 3.66193 93.6818 3.86364C93.7926 4.06534 93.9347 4.27415 94.108 4.49006C94.2813 4.70312 94.4631 4.92472 94.6534 5.15483L98.706 10H97.2656L93.9119 6.05824C93.6307 5.72585 93.3693 5.41335 93.1278 5.12074C92.8864 4.82528 92.6903 4.52699 92.5398 4.22585C92.392 3.92188 92.3182 3.59375 92.3182 3.24148C92.3182 2.84091 92.4091 2.4858 92.5909 2.17614C92.7756 1.86364 93.0327 1.61932 93.3622 1.44318C93.6918 1.26705 94.0781 1.17898 94.5213 1.17898C94.9702 1.17898 95.3551 1.26705 95.6761 1.44318C96 1.61648 96.2486 1.84801 96.4219 2.13778C96.598 2.42472 96.6861 2.73864 96.6861 3.07955C96.6861 3.49432 96.5824 3.8608 96.375 4.17898C96.1705 4.49432 95.8878 4.78409 95.527 5.0483L93.7756 6.33949C93.4347 6.58949 93.1974 6.83665 93.0639 7.08097C92.9332 7.32244 92.8679 7.51136 92.8679 7.64773C92.8679 7.89773 92.9318 8.12926 93.0597 8.34233C93.1903 8.5554 93.3722 8.72585 93.6051 8.85369C93.8409 8.98153 94.1165 9.04545 94.4318 9.04545C94.7557 9.04545 95.071 8.97585 95.3778 8.83665C95.6875 8.6946 95.9673 8.49148 96.2173 8.22727C96.4702 7.96307 96.6705 7.64631 96.8182 7.27699C96.9659 6.90767 97.0398 6.49432 97.0398 6.03693H98.1903C98.1903 6.59943 98.1264 7.07528 97.9986 7.46449C97.8707 7.85085 97.7159 8.16619 97.5341 8.41051C97.3551 8.65199 97.1861 8.84091 97.027 8.97727C96.9759 9.02273 96.9276 9.06818 96.8821 9.11364C96.8366 9.15909 96.7884 9.20455 96.7372 9.25C96.4418 9.5483 96.0838 9.76847 95.6634 9.91051C95.2457 10.0526 94.8338 10.1236 94.4276 10.1236ZM0.958807 25V16.2727H4.0696C4.74858 16.2727 5.31108 16.3963 5.7571 16.6435C6.20313 16.8906 6.53693 17.2287 6.75852 17.6577C6.98011 18.0838 7.09091 18.5639 7.09091 19.098C7.09091 19.6349 6.97869 20.1179 6.75426 20.5469C6.53267 20.973 6.19744 21.3111 5.74858 21.5611C5.30256 21.8082 4.74148 21.9318 4.06534 21.9318H1.92614V20.8153H3.94602C4.375 20.8153 4.72301 20.7415 4.99006 20.5938C5.2571 20.4432 5.45312 20.2386 5.57812 19.9801C5.70312 19.7216 5.76562 19.4276 5.76562 19.098C5.76562 18.7685 5.70312 18.4759 5.57812 18.2202C5.45312 17.9645 5.25568 17.7642 4.9858 17.6193C4.71875 17.4744 4.36648 17.402 3.92898 17.402H2.27557V25H0.958807ZM8.53232 25V18.4545H9.76385V19.4943H9.83203C9.95135 19.142 10.1616 18.8651 10.4627 18.6634C10.7667 18.4588 11.1104 18.3565 11.494 18.3565C11.5735 18.3565 11.6673 18.3594 11.7752 18.3651C11.886 18.3707 11.9727 18.3778 12.0352 18.3864V19.6051C11.984 19.5909 11.8931 19.5753 11.7624 19.5582C11.6317 19.5384 11.5011 19.5284 11.3704 19.5284C11.0692 19.5284 10.8008 19.5923 10.565 19.7202C10.332 19.8452 10.1474 20.0199 10.011 20.2443C9.87464 20.4659 9.80646 20.7187 9.80646 21.0028V25H8.53232ZM15.6605 25.1321C15.0469 25.1321 14.5114 24.9915 14.054 24.7102C13.5966 24.429 13.2415 24.0355 12.9886 23.5298C12.7358 23.0241 12.6094 22.4332 12.6094 21.7571C12.6094 21.0781 12.7358 20.4844 12.9886 19.9759C13.2415 19.4673 13.5966 19.0724 14.054 18.7912C14.5114 18.5099 15.0469 18.3693 15.6605 18.3693C16.2741 18.3693 16.8097 18.5099 17.267 18.7912C17.7244 19.0724 18.0795 19.4673 18.3324 19.9759C18.5852 20.4844 18.7116 21.0781 18.7116 21.7571C18.7116 22.4332 18.5852 23.0241 18.3324 23.5298C18.0795 24.0355 17.7244 24.429 17.267 24.7102C16.8097 24.9915 16.2741 25.1321 15.6605 25.1321ZM15.6648 24.0625C16.0625 24.0625 16.392 23.9574 16.6534 23.7472C16.9148 23.5369 17.108 23.2571 17.233 22.9077C17.3608 22.5582 17.4247 22.1733 17.4247 21.7528C17.4247 21.3352 17.3608 20.9517 17.233 20.6023C17.108 20.25 16.9148 19.9673 16.6534 19.7543C16.392 19.5412 16.0625 19.4347 15.6648 19.4347C15.2642 19.4347 14.9318 19.5412 14.6676 19.7543C14.4063 19.9673 14.2116 20.25 14.0838 20.6023C13.9588 20.9517 13.8963 21.3352 13.8963 21.7528C13.8963 22.1733 13.9588 22.5582 14.0838 22.9077C14.2116 23.2571 14.4063 23.5369 14.6676 23.7472C14.9318 23.9574 15.2642 24.0625 15.6648 24.0625ZM22.5842 25.1278C22.0558 25.1278 21.5842 24.9929 21.1694 24.723C20.7575 24.4503 20.4336 24.0625 20.1978 23.5597C19.9648 23.054 19.8484 22.4474 19.8484 21.7401C19.8484 21.0327 19.9663 20.4276 20.2021 19.9247C20.4407 19.4219 20.7674 19.0369 21.1822 18.7699C21.5969 18.5028 22.0671 18.3693 22.5927 18.3693C22.9989 18.3693 23.3256 18.4375 23.5728 18.5739C23.8228 18.7074 24.016 18.8636 24.1523 19.0426C24.2915 19.2216 24.3995 19.3793 24.4762 19.5156H24.5529V16.2727H25.8271V25H24.5827V23.9815H24.4762C24.3995 24.1207 24.2887 24.2798 24.1438 24.4588C24.0018 24.6378 23.8058 24.794 23.5558 24.9276C23.3058 25.0611 22.9819 25.1278 22.5842 25.1278ZM22.8654 24.0412C23.2319 24.0412 23.5415 23.9446 23.7944 23.7514C24.0501 23.5554 24.2433 23.2841 24.3739 22.9375C24.5075 22.5909 24.5742 22.1875 24.5742 21.7273C24.5742 21.2727 24.5089 20.875 24.3782 20.5341C24.2475 20.1932 24.0558 19.9276 23.8029 19.7372C23.5501 19.5469 23.2376 19.4517 22.8654 19.4517C22.4819 19.4517 22.1623 19.5511 21.9066 19.75C21.6509 19.9489 21.4577 20.2202 21.3271 20.5639C21.1992 20.9077 21.1353 21.2955 21.1353 21.7273C21.1353 22.1648 21.2006 22.5582 21.3313 22.9077C21.462 23.2571 21.6552 23.5341 21.9109 23.7386C22.1694 23.9403 22.4876 24.0412 22.8654 24.0412ZM31.7919 22.2855V18.4545H33.0703V25H31.8175V23.8665H31.7493C31.5987 24.2159 31.3572 24.5071 31.0249 24.7401C30.6953 24.9702 30.2848 25.0852 29.7933 25.0852C29.3729 25.0852 29.0007 24.9929 28.6768 24.8082C28.3558 24.6207 28.103 24.3438 27.9183 23.9773C27.7365 23.6108 27.6456 23.1577 27.6456 22.6179V18.4545H28.9197V22.4645C28.9197 22.9105 29.0433 23.2656 29.2905 23.5298C29.5376 23.794 29.8587 23.9261 30.2536 23.9261C30.4922 23.9261 30.7294 23.8665 30.9652 23.7472C31.2038 23.6278 31.4013 23.4474 31.5575 23.206C31.7166 22.9645 31.7947 22.6577 31.7919 22.2855ZM37.5394 25.1321C36.9059 25.1321 36.3604 24.9886 35.9031 24.7017C35.4485 24.4119 35.0991 24.0128 34.8548 23.5043C34.6104 22.9957 34.4883 22.4134 34.4883 21.7571C34.4883 21.0923 34.6133 20.5057 34.8633 19.9972C35.1133 19.4858 35.4656 19.0866 35.9201 18.7997C36.3746 18.5128 36.9102 18.3693 37.5266 18.3693C38.0238 18.3693 38.467 18.4616 38.8562 18.6463C39.2454 18.8281 39.5593 19.0838 39.7979 19.4134C40.0394 19.7429 40.1829 20.1278 40.2283 20.5682H38.9883C38.9201 20.2614 38.7638 19.9972 38.5195 19.7756C38.2781 19.554 37.9542 19.4432 37.5479 19.4432C37.1928 19.4432 36.8817 19.5369 36.6147 19.7244C36.3505 19.9091 36.1445 20.1733 35.9968 20.517C35.8491 20.858 35.7752 21.2614 35.7752 21.7273C35.7752 22.2045 35.8477 22.6165 35.9925 22.9631C36.1374 23.3097 36.342 23.5781 36.6062 23.7685C36.8732 23.9588 37.1871 24.054 37.5479 24.054C37.7894 24.054 38.0082 24.0099 38.2042 23.9219C38.4031 23.831 38.5692 23.7017 38.7028 23.5341C38.8391 23.3665 38.9343 23.1648 38.9883 22.929H40.2283C40.1829 23.3523 40.0451 23.7301 39.815 24.0625C39.5849 24.3949 39.2766 24.6562 38.8903 24.8466C38.5067 25.0369 38.0565 25.1321 37.5394 25.1321ZM44.6463 18.4545V19.4773H41.071V18.4545H44.6463ZM42.0298 16.8864H43.304V23.0781C43.304 23.3253 43.3409 23.5114 43.4148 23.6364C43.4886 23.7585 43.5838 23.8423 43.7003 23.8878C43.8196 23.9304 43.9489 23.9517 44.0881 23.9517C44.1903 23.9517 44.2798 23.9446 44.3565 23.9304C44.4332 23.9162 44.4929 23.9048 44.5355 23.8963L44.7656 24.9489C44.6918 24.9773 44.5866 25.0057 44.4503 25.0341C44.3139 25.0653 44.1435 25.0824 43.9389 25.0852C43.6037 25.0909 43.2912 25.0312 43.0014 24.9062C42.7116 24.7812 42.4773 24.5881 42.2983 24.3267C42.1193 24.0653 42.0298 23.7372 42.0298 23.3423V16.8864ZM52.1591 25H49.3338V16.2727H52.2486C53.1037 16.2727 53.8381 16.4474 54.4517 16.7969C55.0653 17.1435 55.5355 17.642 55.8622 18.2926C56.1918 18.9403 56.3565 19.7173 56.3565 20.6236C56.3565 21.5327 56.1903 22.3139 55.858 22.9673C55.5284 23.6207 55.0511 24.1236 54.4261 24.4759C53.8011 24.8253 53.0455 25 52.1591 25ZM50.6506 23.8494H52.0866C52.7514 23.8494 53.304 23.7244 53.7443 23.4744C54.1847 23.2216 54.5142 22.8565 54.733 22.3793C54.9517 21.8991 55.0611 21.3139 55.0611 20.6236C55.0611 19.9389 54.9517 19.358 54.733 18.8807C54.517 18.4034 54.1946 18.0412 53.7656 17.794C53.3366 17.5469 52.804 17.4233 52.1676 17.4233H50.6506V23.8494ZM60.7127 25.1321C60.0678 25.1321 59.5124 24.9943 59.0465 24.7188C58.5835 24.4403 58.2255 24.0497 57.9727 23.5469C57.7227 23.0412 57.5977 22.4489 57.5977 21.7699C57.5977 21.0994 57.7227 20.5085 57.9727 19.9972C58.2255 19.4858 58.5778 19.0866 59.0295 18.7997C59.484 18.5128 60.0153 18.3693 60.6232 18.3693C60.9925 18.3693 61.3505 18.4304 61.6971 18.5526C62.0437 18.6747 62.3548 18.8665 62.6303 19.1278C62.9059 19.3892 63.1232 19.7287 63.2823 20.1463C63.4414 20.5611 63.521 21.0653 63.521 21.6591V22.1108H58.3178V21.1562H62.2724C62.2724 20.821 62.2042 20.5241 62.0678 20.2656C61.9315 20.0043 61.7397 19.7983 61.4925 19.6477C61.2482 19.4972 60.9613 19.4219 60.6317 19.4219C60.2738 19.4219 59.9613 19.5099 59.6942 19.6861C59.43 19.8594 59.2255 20.0866 59.0806 20.3679C58.9386 20.6463 58.8675 20.9489 58.8675 21.2756V22.0213C58.8675 22.4588 58.9442 22.831 59.0977 23.1378C59.2539 23.4446 59.4712 23.679 59.7496 23.8409C60.0281 24 60.3533 24.0795 60.7255 24.0795C60.967 24.0795 61.1871 24.0455 61.386 23.9773C61.5849 23.9062 61.7567 23.8011 61.9016 23.6619C62.0465 23.5227 62.1573 23.3509 62.234 23.1463L63.44 23.3636C63.3434 23.7187 63.1701 24.0298 62.9201 24.2969C62.6729 24.5611 62.3619 24.767 61.9869 24.9148C61.6147 25.0597 61.19 25.1321 60.7127 25.1321ZM69.8395 20.0526L68.6847 20.2571C68.6364 20.1094 68.5597 19.9687 68.4545 19.8352C68.3523 19.7017 68.2131 19.5923 68.0369 19.5071C67.8608 19.4219 67.6406 19.3793 67.3764 19.3793C67.0156 19.3793 66.7145 19.4602 66.473 19.6222C66.2315 19.7812 66.1108 19.9872 66.1108 20.2401C66.1108 20.4588 66.1918 20.6349 66.3537 20.7685C66.5156 20.902 66.777 21.0114 67.1378 21.0966L68.1776 21.3352C68.7798 21.4744 69.2287 21.6889 69.5241 21.9787C69.8196 22.2685 69.9673 22.6449 69.9673 23.108C69.9673 23.5 69.8537 23.8494 69.6264 24.1562C69.402 24.4602 69.0881 24.6989 68.6847 24.8722C68.2841 25.0455 67.8196 25.1321 67.2912 25.1321C66.5582 25.1321 65.9602 24.9759 65.4972 24.6634C65.0341 24.348 64.75 23.9006 64.6449 23.321L65.8764 23.1335C65.9531 23.4545 66.1108 23.6974 66.3494 23.8622C66.5881 24.0241 66.8991 24.1051 67.2827 24.1051C67.7003 24.1051 68.0341 24.0185 68.2841 23.8452C68.5341 23.669 68.6591 23.4545 68.6591 23.2017C68.6591 22.9972 68.5824 22.8253 68.429 22.6861C68.2784 22.5469 68.0469 22.4418 67.7344 22.3707L66.6264 22.1278C66.0156 21.9886 65.5639 21.767 65.2713 21.4631C64.9815 21.1591 64.8366 20.7741 64.8366 20.3082C64.8366 19.9219 64.9446 19.5838 65.1605 19.294C65.3764 19.0043 65.6747 18.7784 66.0554 18.6165C66.4361 18.4517 66.8722 18.3693 67.3636 18.3693C68.071 18.3693 68.6278 18.5227 69.0341 18.8295C69.4403 19.1335 69.7088 19.5412 69.8395 20.0526ZM71.3683 25V18.4545H72.6424V25H71.3683ZM72.0117 17.4446C71.7901 17.4446 71.5998 17.3707 71.4407 17.223C71.2844 17.0724 71.2063 16.8935 71.2063 16.6861C71.2063 16.4759 71.2844 16.2969 71.4407 16.1491C71.5998 15.9986 71.7901 15.9233 72.0117 15.9233C72.2333 15.9233 72.4222 15.9986 72.5785 16.1491C72.7376 16.2969 72.8171 16.4759 72.8171 16.6861C72.8171 16.8935 72.7376 17.0724 72.5785 17.223C72.4222 17.3707 72.2333 17.4446 72.0117 17.4446ZM77.1009 27.5909C76.581 27.5909 76.1335 27.5227 75.7585 27.3864C75.3864 27.25 75.0824 27.0696 74.8466 26.8452C74.6108 26.6207 74.4347 26.375 74.3182 26.108L75.4134 25.6562C75.4901 25.7812 75.5923 25.9134 75.7202 26.0526C75.8509 26.1946 76.027 26.3153 76.2486 26.4148C76.473 26.5142 76.7614 26.5639 77.1136 26.5639C77.5966 26.5639 77.9957 26.446 78.3111 26.2102C78.6264 25.9773 78.7841 25.6051 78.7841 25.0938V23.8068H78.7031C78.6264 23.946 78.5156 24.1009 78.3707 24.2713C78.2287 24.4418 78.0327 24.5895 77.7827 24.7145C77.5327 24.8395 77.2074 24.902 76.8068 24.902C76.2898 24.902 75.8239 24.7812 75.4091 24.5398C74.9972 24.2955 74.6705 23.9361 74.429 23.4616C74.1903 22.9844 74.071 22.3977 74.071 21.7017C74.071 21.0057 74.1889 20.4091 74.4247 19.9119C74.6634 19.4148 74.9901 19.0341 75.4048 18.7699C75.8196 18.5028 76.2898 18.3693 76.8153 18.3693C77.2216 18.3693 77.5497 18.4375 77.7997 18.5739C78.0497 18.7074 78.2443 18.8636 78.3835 19.0426C78.5256 19.2216 78.6349 19.3793 78.7116 19.5156H78.8054V18.4545H80.054V25.1449C80.054 25.7074 79.9233 26.169 79.6619 26.5298C79.4006 26.8906 79.0469 27.1577 78.6009 27.331C78.1577 27.5043 77.6577 27.5909 77.1009 27.5909ZM77.0881 23.8452C77.4545 23.8452 77.7642 23.7599 78.017 23.5895C78.2727 23.4162 78.4659 23.169 78.5966 22.848C78.7301 22.5241 78.7969 22.1364 78.7969 21.6847C78.7969 21.2443 78.7315 20.8565 78.6009 20.5213C78.4702 20.1861 78.2784 19.9247 78.0256 19.7372C77.7727 19.5469 77.4602 19.4517 77.0881 19.4517C76.7045 19.4517 76.3849 19.5511 76.1293 19.75C75.8736 19.946 75.6804 20.2131 75.5497 20.5511C75.4219 20.8892 75.358 21.267 75.358 21.6847C75.358 22.1136 75.4233 22.4901 75.554 22.8139C75.6847 23.1378 75.8778 23.3906 76.1335 23.5724C76.392 23.7543 76.7102 23.8452 77.0881 23.8452ZM83.0369 21.1136V25H81.7628V18.4545H82.9858V19.5199H83.0668C83.2173 19.1733 83.4531 18.8949 83.7741 18.6847C84.098 18.4744 84.5057 18.3693 84.9972 18.3693C85.4432 18.3693 85.8338 18.4631 86.169 18.6506C86.5043 18.8352 86.7642 19.1108 86.9489 19.4773C87.1335 19.8437 87.2259 20.2969 87.2259 20.8366V25H85.9517V20.9901C85.9517 20.5156 85.8281 20.1449 85.581 19.8778C85.3338 19.608 84.9943 19.473 84.5625 19.473C84.267 19.473 84.0043 19.5369 83.7741 19.6648C83.5469 19.7926 83.3665 19.9801 83.233 20.2273C83.1023 20.4716 83.0369 20.767 83.0369 21.1136ZM91.7557 25.1321C91.1108 25.1321 90.5554 24.9943 90.0895 24.7188C89.6264 24.4403 89.2685 24.0497 89.0156 23.5469C88.7656 23.0412 88.6406 22.4489 88.6406 21.7699C88.6406 21.0994 88.7656 20.5085 89.0156 19.9972C89.2685 19.4858 89.6207 19.0866 90.0724 18.7997C90.527 18.5128 91.0582 18.3693 91.6662 18.3693C92.0355 18.3693 92.3935 18.4304 92.7401 18.5526C93.0866 18.6747 93.3977 18.8665 93.6733 19.1278C93.9489 19.3892 94.1662 19.7287 94.3253 20.1463C94.4844 20.5611 94.5639 21.0653 94.5639 21.6591V22.1108H89.3608V21.1562H93.3153C93.3153 20.821 93.2472 20.5241 93.1108 20.2656C92.9744 20.0043 92.7827 19.7983 92.5355 19.6477C92.2912 19.4972 92.0043 19.4219 91.6747 19.4219C91.3168 19.4219 91.0043 19.5099 90.7372 19.6861C90.473 19.8594 90.2685 20.0866 90.1236 20.3679C89.9815 20.6463 89.9105 20.9489 89.9105 21.2756V22.0213C89.9105 22.4588 89.9872 22.831 90.1406 23.1378C90.2969 23.4446 90.5142 23.679 90.7926 23.8409C91.071 24 91.3963 24.0795 91.7685 24.0795C92.0099 24.0795 92.2301 24.0455 92.429 23.9773C92.6278 23.9062 92.7997 23.8011 92.9446 23.6619C93.0895 23.5227 93.2003 23.3509 93.277 23.1463L94.483 23.3636C94.3864 23.7187 94.2131 24.0298 93.9631 24.2969C93.7159 24.5611 93.4048 24.767 93.0298 24.9148C92.6577 25.0597 92.233 25.1321 91.7557 25.1321ZM95.9776 25V18.4545H97.2092V19.4943H97.2773C97.3967 19.142 97.6069 18.8651 97.908 18.6634C98.212 18.4588 98.5558 18.3565 98.9393 18.3565C99.0188 18.3565 99.1126 18.3594 99.2205 18.3651C99.3313 18.3707 99.418 18.3778 99.4805 18.3864V19.6051C99.4293 19.5909 99.3384 19.5753 99.2077 19.5582C99.0771 19.5384 98.9464 19.5284 98.8157 19.5284C98.5146 19.5284 98.2461 19.5923 98.0103 19.7202C97.7773 19.8452 97.5927 20.0199 97.4563 20.2443C97.32 20.4659 97.2518 20.7187 97.2518 21.0028V25H95.9776Z" fill="#939395"/>
</svg>
